<svg width="114" height="120" viewBox="0 0 114 120" fill="none" xmlns="http://www.w3.org/2000/svg">
<path d="M110.803 82.5506C110.803 82.5506 114.739 77.0844 113.876 74.8189C113.876 74.8189 113.505 78.3568 110.541 82.2076L110.803 82.5506Z" fill="#3b6647"/>
<path d="M110.781 82.1555C108.608 83.6081 107.413 78.6417 104.044 77.1572C100.682 75.7582 96.7128 80.8103 90.1674 84.9042C83.5781 88.6098 79.0254 85.7296 79.0254 85.7296C79.0254 85.7296 79.3693 85.8115 79.8223 86.0447C81.7711 87.0709 88.1529 89.7754 100.616 87.2516C106.566 85.8526 109.416 84.1109 110.759 82.2856C110.743 82.2002 110.781 82.1555 110.781 82.1555Z" fill="#E5E4E2"/>
<path d="M110.781 82.1555C108.706 84.1361 107.173 79.0139 103.799 77.523C100.436 76.117 96.9751 81.2359 90.4297 85.3178C83.8407 89.0117 79.1348 85.8014 79.1348 85.8014C79.3587 85.934 79.5825 86.0644 79.8062 86.1895C88.1697 91.3445 95.9871 91.9285 103.635 88.9135C110.186 86.0277 110.896 82.9871 110.803 82.2872C110.792 82.2015 110.781 82.1555 110.781 82.1555Z" fill="#3b6647"/>
<path d="M110.699 82.0923C108.63 84.0729 107.091 78.9517 103.722 77.4641C100.36 76.06 96.8985 81.1806 90.3531 85.263C83.7641 88.9571 79.0582 85.7505 79.0582 85.7505C79.0582 85.7505 79.2765 85.9056 79.7297 86.1379C81.6787 87.1653 88.0602 89.8741 100.518 87.3637C106.474 85.9698 109.389 84.0487 110.726 82.2233C110.71 82.138 110.699 82.0923 110.699 82.0923Z" fill="#3b6647"/>
<path d="M110.803 82.2872C110.066 83.1515 109.116 83.8952 108.084 84.528C107.053 85.1564 105.917 85.6674 104.743 86.103C102.385 86.9441 99.8795 87.4978 97.3411 87.8489C97.0189 87.893 96.7022 87.9301 96.3856 87.9706L95.4248 88.0665L94.4639 88.1595L93.5032 88.2211C92.2149 88.314 90.9321 88.3269 89.6491 88.3129L88.6939 88.2818C88.3717 88.2691 88.0605 88.2408 87.7384 88.2233C87.4218 88.2086 87.1106 88.1708 86.794 88.1414C86.6357 88.1245 86.4774 88.1147 86.3246 88.0924L85.8605 88.0305C84.6213 87.8663 83.393 87.6309 82.3393 87.2095C82.8199 87.4573 83.3876 87.6403 83.9662 87.8002C84.5558 87.9559 85.1563 88.0937 85.7786 88.1987C87.0234 88.4116 88.3116 88.5438 89.6109 88.5974C90.9048 88.6496 92.2149 88.6459 93.5195 88.5765L94.4968 88.5235L95.474 88.4367L96.4457 88.3468C96.7677 88.3079 97.0953 88.2736 97.4175 88.2299C98.7057 88.0518 99.9885 87.8219 101.25 87.5251C101.877 87.3716 102.5 87.2046 103.111 87.0152C103.728 86.8301 104.329 86.6146 104.924 86.3852C106.103 85.918 107.238 85.3568 108.248 84.6798C108.756 84.3355 109.225 83.9649 109.662 83.5673C110.093 83.1694 110.492 82.7452 110.803 82.2872Z" fill="#FEFEFE"/>
<path d="M91.6306 84.408C92.3294 84.1766 93.1045 84.1154 93.8306 84.1633C94.5621 84.2149 95.2445 84.3803 95.8722 84.6122C96.5001 84.8446 97.0514 85.1603 97.5865 85.4878C98.1323 85.8323 98.8092 86.0817 99.5408 86.1979C100.272 86.3172 101.037 86.3308 101.795 86.2728C102.549 86.2178 103.302 86.1003 104.034 85.9323C105.502 85.5954 106.916 85.1099 108.237 84.4983C107.56 84.7832 106.867 85.0369 106.157 85.2602C105.453 85.4834 104.732 85.6806 104.001 85.8323C103.275 85.9829 102.532 86.1031 101.79 86.1521C101.047 86.2052 100.3 86.1878 99.5953 86.0698C98.8856 85.9623 98.236 85.7264 97.7065 85.3982C97.1605 85.0713 96.5983 84.7482 95.9487 84.5249C95.2992 84.2994 94.5949 84.141 93.8469 84.1023C93.4703 84.0919 93.0936 84.0959 92.7168 84.1492C92.3456 84.1994 91.969 84.2753 91.6306 84.408Z" fill="#FEFEFE"/>
<path d="M108.931 83.9668C108.62 84.0431 108.308 84.1071 107.992 84.1551C107.681 84.2052 107.364 84.2441 107.048 84.2664C106.42 84.3113 105.786 84.308 105.186 84.2217C104.58 84.1426 104.012 83.9766 103.51 83.7364C103.264 83.6163 103.03 83.4787 102.822 83.3205C102.604 83.1714 102.429 82.9944 102.249 82.8194C102.527 83.2079 102.92 83.5601 103.423 83.823C103.919 84.0929 104.514 84.2708 105.137 84.356C105.759 84.4428 106.414 84.4428 107.053 84.3717C107.691 84.3007 108.33 84.1736 108.931 83.9668Z" fill="#FEFEFE"/>
<path d="M104.673 86.5701C104.329 86.859 103.963 87.1358 103.581 87.3956C103.395 87.5293 103.199 87.6531 103.008 87.7816C102.811 87.9066 102.615 88.025 102.413 88.1468C101.61 88.6179 100.759 89.0442 99.8633 89.4056C99.6394 89.493 99.4209 89.5908 99.1918 89.6695L98.4986 89.9058C98.2692 89.9831 98.0235 90.0412 97.7887 90.1097L97.4339 90.2082C97.3139 90.2403 97.1883 90.2637 97.0683 90.2922L96.3367 90.4527L95.5888 90.5684C95.4686 90.5874 95.3432 90.6094 95.2177 90.6269L94.8408 90.6623L94.0767 90.7362L94.8408 90.6963L95.2285 90.6743C95.3542 90.6619 95.4797 90.6444 95.6051 90.6297L96.364 90.5314L97.1064 90.3872C98.0946 90.1765 99.0499 89.8862 99.9506 89.5197C100.851 89.1452 101.708 88.7165 102.5 88.2249C103.292 87.7265 104.034 87.1807 104.673 86.5701Z" fill="#FEFEFE"/>
<path d="M108.734 84.327C108.723 84.3484 107.522 86.4305 105.393 87.5124L105.491 87.6248C107.669 86.519 108.892 84.3948 108.903 84.3728L108.734 84.327Z" fill="#FEFEFE"/>
<path d="M6.63836 13.6176C6.48565 12.3036 7.61561 12.629 9.44438 11.8358C11.2677 11.0431 12.0867 9.04995 11.5133 5.05111C10.9348 1.05189 13.5606 0 13.5606 0C13.5606 0 13.4077 0.102524 13.1184 0.186041C11.8792 0.545206 8.42898 2.05524 6.67118 7.94178C5.83043 10.7636 5.9834 12.4533 6.57829 13.5667C6.62759 13.5897 6.63836 13.6176 6.63836 13.6176Z" fill="#E5E4E2"/>
<path d="M6.63836 13.6176C6.16894 12.1682 7.47894 12.4119 9.30771 11.6183C11.1365 10.8251 11.7478 8.99846 11.1748 5.00013C10.6015 1.00028 13.4784 0.0144081 13.4784 0.0144081C13.3257 0.0482461 13.1728 0.0825918 13.0253 0.119725C7.42989 1.474 5.13702 4.44871 4.92411 8.57694C4.733 12.1275 6.16331 13.3928 6.56176 13.5836C6.61094 13.6065 6.63836 13.6176 6.63836 13.6176Z" fill="#3b6647"/>
<path d="M6.69794 13.6077C6.22307 12.1594 7.5387 12.4022 9.36748 11.6091C11.1908 10.8164 11.8076 8.98928 11.2291 4.99057C10.6558 0.991104 13.5327 0.00523933 13.5327 0.00523933C13.5327 0.00523933 13.369 0.0266551 13.0796 0.11068C11.8404 0.470477 8.39035 1.97938 6.63242 7.8663C5.7918 10.6876 6.02106 12.4608 6.62166 13.5749C6.6707 13.5978 6.69794 13.6077 6.69794 13.6077Z" fill="#3b6647"/>
<path d="M6.56176 13.5836C6.3107 13.0168 6.18511 12.4072 6.13061 11.7965C6.08144 11.1851 6.11426 10.5708 6.19613 9.96315C6.37077 8.74916 6.73107 7.5656 7.20595 6.43387C7.26602 6.29268 7.32609 6.15226 7.39162 6.01146L7.58818 5.59489L7.78474 5.17945L8.00311 4.77276C8.28686 4.22679 8.61992 3.70883 8.96387 3.20329L9.23686 2.83209C9.3295 2.70915 9.43343 2.59408 9.52607 2.47394C9.62429 2.35177 9.72821 2.24189 9.83188 2.12732C9.88092 2.07054 9.93009 2.01098 9.98471 1.95762L10.1485 1.7954C10.5852 1.36527 11.0711 0.96834 11.6334 0.713858C11.3386 0.807768 11.0656 0.962256 10.8035 1.13157C10.5469 1.3052 10.2957 1.49238 10.0611 1.70035C9.59704 2.11528 9.17121 2.58039 8.80001 3.07998C8.42336 3.57994 8.08497 4.10513 7.78474 4.65161L7.55536 5.06146L7.35346 5.48133L7.14587 5.90222C7.08593 6.0453 7.02041 6.18661 6.96034 6.33083C6.72018 6.90735 6.5127 7.49691 6.34339 8.09902C6.26152 8.40027 6.19069 8.70431 6.13061 9.01126C6.07041 9.31745 6.02681 9.62756 5.98853 9.93818C5.92314 10.5594 5.9177 11.1909 6.00502 11.8112C6.04861 12.1202 6.11426 12.4265 6.2069 12.7244C6.29435 13.0225 6.40905 13.3154 6.56176 13.5836Z" fill="#FEFEFE"/>
<path d="M10.8688 5.43056C10.8142 5.78719 10.6285 6.11087 10.3938 6.37397C10.1536 6.63821 9.85884 6.84555 9.54214 7.00562C9.2201 7.16822 8.87614 7.27188 8.53231 7.36579C8.1829 7.45704 7.8444 7.63561 7.57687 7.88286C7.30388 8.12962 7.08565 8.42706 6.91088 8.74427C6.73612 9.06136 6.5943 9.3967 6.48519 9.74167C6.2667 10.4306 6.14122 11.1463 6.1084 11.8652C6.14122 11.5066 6.19584 11.1517 6.27226 10.8008C6.34311 10.4491 6.436 10.1015 6.55057 9.76346C6.67071 9.42572 6.80721 9.09367 6.98185 8.78406C7.15662 8.47356 7.37498 8.18525 7.63694 7.94889C7.89358 7.70772 8.21574 7.53511 8.55412 7.44399C8.90352 7.34513 9.2528 7.24184 9.56964 7.06669C9.89154 6.89586 10.1918 6.67864 10.4266 6.40286C10.5412 6.26155 10.6448 6.11353 10.7214 5.94763C10.7978 5.7844 10.8579 5.61078 10.8688 5.43056Z" fill="#FEFEFE"/>
<path d="M6.19616 12.3095C6.24521 12.1637 6.29983 12.0212 6.3599 11.8832C6.42542 11.7439 6.49094 11.6085 6.56736 11.4785C6.72565 11.2182 6.90574 10.9736 7.1241 10.7684C7.33702 10.5593 7.59365 10.3939 7.87196 10.2814C8.0139 10.2256 8.15597 10.182 8.30868 10.1563C8.4562 10.1224 8.60904 10.1155 8.76175 10.1051C8.4562 10.081 8.13962 10.1133 7.85016 10.217C7.55538 10.3185 7.28784 10.4893 7.06403 10.704C6.83477 10.9178 6.65468 11.1718 6.50729 11.4452C6.36522 11.7181 6.2561 12.008 6.19616 12.3095Z" fill="#FEFEFE"/>
<path d="M5.95611 9.77804C5.89046 9.5446 5.83038 9.3076 5.78678 9.06896C5.76499 8.94996 5.74851 8.82931 5.72671 8.7098C5.71036 8.59017 5.69389 8.46952 5.67754 8.3495C5.62304 7.86741 5.60669 7.38214 5.62849 6.89903C5.63939 6.77825 5.6394 6.65709 5.6503 6.53708L5.69389 6.17677C5.71036 6.05612 5.73775 5.93813 5.75954 5.81913L5.79223 5.64056C5.80313 5.58125 5.81961 5.52333 5.83596 5.46478L5.92873 5.11335L6.04874 4.77053C6.06509 4.71325 6.08702 4.65533 6.10882 4.59792L6.17978 4.43202L6.32731 4.09846L6.15799 4.42214L6.07612 4.58537C6.05432 4.64063 6.03253 4.69791 6.00515 4.75406L5.87398 5.09586L5.77031 5.44754C5.6394 5.91912 5.56297 6.40604 5.54118 6.89472C5.52483 7.38379 5.54117 7.87412 5.61202 8.35824C5.68312 8.84135 5.78679 9.32066 5.95611 9.77804Z" fill="#FEFEFE"/>
<path d="M6.05923 12.1163C6.04821 12.1042 5.25131 10.9474 5.23483 9.74646L5.14764 9.7476C5.16386 10.9764 5.97736 12.1555 5.98281 12.167L6.05923 12.1163Z" fill="#FEFEFE"/>
<path d="M33.8244 39.2777C33.6169 37.8055 34.5013 38.24 35.8497 37.4746C37.1926 36.7092 37.6894 34.5442 36.996 30.0557C36.2974 25.5661 38.2352 24.5639 38.2352 24.5639C38.2352 24.5639 38.1262 24.6682 37.9078 24.7434C36.9853 25.0634 34.4467 26.5215 33.4804 32.9616C33.0165 36.0493 33.2403 37.9385 33.7698 39.217C33.808 39.2461 33.8244 39.2777 33.8244 39.2777Z" fill="#E5E4E2"/>
<path d="M33.8244 39.2777C33.3657 37.6345 34.3864 37.9896 35.7349 37.2239C37.0778 36.4589 37.4326 34.4647 36.7339 29.9763C36.0351 25.4873 38.1752 24.5744 38.1752 24.5744C38.0605 24.6029 37.9458 24.6308 37.8313 24.663C33.6442 25.8103 32.0828 28.9745 32.181 33.5563C32.2685 37.4966 33.442 38.9969 33.7587 39.2354C33.7969 39.2638 33.8244 39.2777 33.8244 39.2777Z" fill="#3b6647"/>
<path d="M33.8627 39.2709C33.4096 37.6275 34.4305 37.9824 35.7733 37.217C37.1216 36.4523 37.4711 34.4575 36.7778 29.9695C36.0789 25.4801 38.2189 24.5679 38.2189 24.5679C38.2189 24.5679 38.088 24.5814 37.8751 24.6563C36.9525 24.9767 34.4084 26.4349 33.4478 32.8749C32.9837 35.9615 33.2731 37.9502 33.8026 39.2287C33.8409 39.2571 33.8627 39.2709 33.8627 39.2709Z" fill="#3b6647"/>
<path d="M33.7587 39.2354C33.5349 38.5885 33.3933 37.9008 33.3168 37.2179C33.235 36.5338 33.2239 35.852 33.2459 35.1816C33.3005 33.8408 33.5024 32.546 33.7917 31.3176C33.83 31.1632 33.8683 31.012 33.9064 30.8587L34.0319 30.4077L34.1576 29.9578L34.2941 29.52C34.4796 28.9299 34.698 28.3753 34.9273 27.8343L35.1128 27.4385C35.1784 27.308 35.2493 27.1862 35.3094 27.0585C35.375 26.9281 35.4513 26.8128 35.5223 26.6916C35.5551 26.6322 35.5934 26.5694 35.6315 26.5137L35.7461 26.3433C36.0519 25.8923 36.3958 25.4813 36.8106 25.2352C36.5924 25.3203 36.3903 25.4742 36.1993 25.6457C36.0136 25.8226 35.8335 26.0148 35.6698 26.231C35.3422 26.6638 35.0474 27.1546 34.7962 27.6864C34.5397 28.2192 34.3103 28.7814 34.1193 29.3704L33.9719 29.8126L33.841 30.2667L33.7153 30.7222C33.6771 30.8772 33.6334 31.03 33.5953 31.1867C33.4533 31.8135 33.3277 32.4559 33.2404 33.1153C33.1968 33.4457 33.164 33.7791 33.1368 34.1171C33.1094 34.454 33.0929 34.7968 33.0875 35.1401C33.0767 35.8274 33.115 36.5301 33.2186 37.2262C33.2733 37.5732 33.3441 37.9183 33.4315 38.2556C33.5187 38.5936 33.6222 38.9265 33.7587 39.2354Z" fill="#FEFEFE"/>
<path d="M36.532 30.4359C36.5101 30.8297 36.3901 31.1778 36.2264 31.4557C36.057 31.7347 35.8441 31.9465 35.615 32.1042C35.3802 32.2647 35.1236 32.3576 34.8671 32.4401C34.6049 32.5198 34.3593 32.696 34.1682 32.9542C33.9771 33.2113 33.8298 33.528 33.7151 33.8701C33.6004 34.2121 33.5132 34.5762 33.4532 34.9532C33.333 35.7068 33.2838 36.4951 33.3003 37.2926C33.3056 36.8963 33.3221 36.5037 33.3603 36.1178C33.3931 35.7317 33.4368 35.3501 33.5078 34.9811C33.5733 34.6133 33.655 34.2519 33.7752 33.9188C33.8844 33.5847 34.0317 33.278 34.2175 33.0312C34.403 32.7796 34.6323 32.6081 34.8889 32.5284C35.1454 32.4411 35.4074 32.3483 35.6422 32.1736C35.877 32.0042 36.0899 31.7812 36.2536 31.4896C36.33 31.3399 36.4011 31.1812 36.4502 31.002C36.4939 30.8251 36.532 30.6353 36.532 30.4359Z" fill="#FEFEFE"/>
<path d="M33.3987 37.7935C33.426 37.6346 33.4588 37.4795 33.497 37.3294C33.5352 37.1788 33.5788 37.032 33.6281 36.8922C33.7318 36.6126 33.8518 36.3516 34.0101 36.1372C34.1576 35.9189 34.3432 35.7513 34.5506 35.6437C34.6543 35.5906 34.758 35.5509 34.8727 35.5323C34.9819 35.5044 35.1021 35.5056 35.2167 35.5044C34.9819 35.4581 34.7416 35.4739 34.5288 35.571C34.3103 35.6639 34.1138 35.8375 33.9555 36.0613C33.7972 36.2856 33.6717 36.5565 33.5843 36.8519C33.4916 37.1467 33.426 37.4622 33.3987 37.7935Z" fill="#FEFEFE"/>
<path d="M33.0491 34.9596C32.9836 34.6942 32.9236 34.428 32.8799 34.1593C32.8525 34.0244 32.8307 33.8896 32.8089 33.7554C32.7871 33.621 32.7654 33.4857 32.7489 33.3514C32.6725 32.8115 32.6289 32.2698 32.6178 31.7333C32.6178 31.5995 32.6069 31.4647 32.6124 31.3321L32.6178 30.933C32.6234 30.7997 32.6342 30.6709 32.6452 30.5393L32.656 30.3428C32.6616 30.2779 32.6725 30.2144 32.6835 30.1501L32.7271 29.7642L32.7979 29.3902C32.8089 29.3279 32.82 29.2647 32.8307 29.2025L32.8799 29.0224L32.9727 28.6604L32.8636 29.0102L32.8089 29.186C32.7925 29.2467 32.7817 29.3089 32.7654 29.37L32.6888 29.7417L32.6288 30.1266C32.5633 30.6432 32.5305 31.1803 32.547 31.7235C32.5633 32.2661 32.6124 32.8136 32.6942 33.3563C32.7817 33.8988 32.8908 34.4387 33.0491 34.9596Z" fill="#FEFEFE"/>
<path d="M33.2782 37.5694C33.2728 37.5556 32.5904 36.216 32.4975 34.8781L32.4321 34.8736C32.5194 36.2427 33.2182 37.6076 33.229 37.6206L33.2782 37.5694Z" fill="#FEFEFE"/>
<path d="M1.3262 46.0821C1.3262 46.0821 2.34172 48.3783 3.06778 48.389C3.06778 48.389 2.14516 47.7242 1.4518 46.0347L1.3262 46.0821Z" fill="#3b6647"/>
<path d="M1.43547 46.1312C1.30442 45.0989 2.80559 45.3866 3.61909 44.3368C4.40522 43.2789 3.50453 41.0308 3.17692 37.9574C2.96388 34.9242 4.30142 33.6365 4.30142 33.6365C4.30142 33.6365 4.23591 33.7538 4.11589 33.8903C3.60274 34.4728 2.09055 36.4747 1.27159 41.5446C0.938661 43.9951 1.06971 45.3287 1.40277 46.1041C1.42989 46.1122 1.43547 46.1312 1.43547 46.1312Z" fill="#3b6647"/>
<path d="M1.43547 46.1312C1.14613 45.057 2.72948 45.2395 3.54843 44.1909C4.33988 43.1328 3.35731 41.0688 3.03528 37.9952C2.82237 34.9637 4.26903 33.6673 4.26903 33.6673C4.20338 33.7316 4.14344 33.7967 4.07792 33.8622C1.65958 36.2483 0.55687 39.1062 0.453202 42.4367C0.453202 45.3317 1.19548 46.0528 1.39762 46.1217C1.42487 46.1293 1.43547 46.1312 1.43547 46.1312Z" fill="#3b6647"/>
<path d="M1.46269 46.1115C1.17336 45.0373 2.75652 45.2189 3.5699 44.1698C4.36161 43.1118 3.37891 41.0478 3.05675 37.9748C2.84384 34.9428 4.2905 33.6463 4.2905 33.6463C4.2905 33.6463 4.21954 33.7046 4.10485 33.8406C3.58625 34.4231 2.07418 36.4238 1.25522 41.4927C0.916845 43.9426 1.08604 45.3255 1.42455 46.1017C1.45179 46.1093 1.46269 46.1115 1.46269 46.1115Z" fill="#3b6647"/>
<path d="M1.39762 46.1217C1.2501 45.7151 1.16296 45.2477 1.11366 44.764C1.07007 44.282 1.06461 43.7788 1.08641 43.2715C1.14648 42.2583 1.29374 41.2309 1.50678 40.2221C1.53416 40.096 1.56141 39.9699 1.58865 39.8443L1.68143 39.4682L1.76887 39.0926L1.86709 38.721C1.998 38.2229 2.15098 37.7366 2.30927 37.2563L2.43473 36.9003C2.47858 36.7818 2.52218 36.6671 2.56578 36.5499C2.6095 36.4319 2.65867 36.3205 2.70227 36.2058C2.72406 36.149 2.74599 36.0907 2.77337 36.0356L2.84421 35.8691C3.04078 35.4279 3.25369 35.0005 3.49385 34.6647C3.36838 34.8094 3.25369 34.9966 3.13899 35.1917C3.0243 35.3892 2.91518 35.5961 2.81151 35.8149C2.5986 36.2518 2.40748 36.7168 2.23817 37.1984C2.0691 37.6793 1.91081 38.1728 1.76887 38.6744L1.66508 39.0511L1.47954 39.8115C1.45217 39.9387 1.41947 40.0666 1.39209 40.1942C1.28842 40.7074 1.19553 41.2243 1.12469 41.7424C1.09186 42.0023 1.05904 42.2616 1.03724 42.5209C1.01544 42.7809 0.998963 43.0389 0.98819 43.2962C0.977164 43.811 0.993642 44.322 1.05359 44.8044C1.08641 45.0446 1.13013 45.2783 1.18475 45.5005C1.2447 45.7226 1.31017 45.9366 1.39762 46.1217Z" fill="#FEFEFE"/>
<path d="M3.13886 38.5831C3.11707 38.8805 3.04065 39.1819 2.93698 39.4478C2.83864 39.7147 2.70759 39.9489 2.5711 40.1497C2.42916 40.3523 2.27631 40.5133 2.12359 40.6663C1.95973 40.82 1.81235 41.0375 1.69233 41.2962C1.57218 41.5538 1.47396 41.8409 1.39754 42.1341C1.32111 42.4279 1.2665 42.7281 1.22278 43.0294C1.13533 43.6316 1.09718 44.2364 1.10276 44.8255C1.10808 44.5279 1.12456 44.2288 1.14636 43.9291C1.1736 43.63 1.20643 43.3303 1.25002 43.0322C1.29919 42.7352 1.35369 42.4383 1.43011 42.1506C1.50666 41.8629 1.60487 41.5839 1.71957 41.3356C1.83426 41.0844 1.97608 40.8747 2.13437 40.7253C2.28734 40.5673 2.44563 40.4047 2.58213 40.1907C2.72394 39.9817 2.84966 39.7381 2.95333 39.463C3.00238 39.3238 3.04622 39.1802 3.07879 39.0306C3.10616 38.8827 3.13342 38.7299 3.13886 38.5831Z" fill="#FEFEFE"/>
<path d="M1.16837 45.1653C1.18485 45.037 1.2012 44.9104 1.22844 44.7843C1.25024 44.6587 1.27762 44.5343 1.31031 44.4125C1.37596 44.1684 1.45226 43.931 1.55048 43.7171C1.64337 43.5014 1.75793 43.3109 1.88353 43.1586C1.94905 43.0821 2.01457 43.015 2.07996 42.961C2.15106 42.9009 2.21647 42.8605 2.28756 42.8184C2.14562 42.8676 2.00368 42.9638 1.87263 43.1122C1.73614 43.2589 1.61612 43.4566 1.51778 43.6788C1.41956 43.9011 1.34313 44.1466 1.28306 44.3984C1.22299 44.65 1.18485 44.9094 1.16837 45.1653Z" fill="#FEFEFE"/>
<path d="M0.971611 43.1753C0.933338 43.0017 0.900517 42.8243 0.873269 42.642C0.862243 42.552 0.851473 42.4591 0.840447 42.368C0.829674 42.2757 0.818644 42.1823 0.813194 42.0896C0.780497 41.7162 0.769601 41.3329 0.77505 40.9416C0.7805 40.8444 0.780501 40.7472 0.786077 40.6483L0.80229 40.3524C0.81319 40.2542 0.824226 40.1543 0.835125 40.055L0.851474 39.9058C0.856924 39.8561 0.867819 39.8061 0.873269 39.7564L0.916995 39.4577L0.976933 39.1591C0.98251 39.1089 0.993411 39.0586 1.00431 39.0089L1.04258 38.8616L1.11343 38.5641L1.03156 38.8583L0.987961 39.0057C0.976935 39.0553 0.966164 39.105 0.955139 39.1553L0.889742 39.4555L0.840447 39.7568C0.780502 40.1603 0.74222 40.5643 0.73677 40.9584C0.725998 41.3514 0.742222 41.7391 0.780496 42.1115C0.818643 42.4827 0.878716 42.844 0.971611 43.1753Z" fill="#FEFEFE"/>
<path d="M1.09188 45.0387C1.08643 45.0316 0.666058 44.2684 0.627911 43.305L0.584185 43.3257C0.622332 44.3105 1.0536 45.0879 1.05905 45.0961L1.09188 45.0387Z" fill="#FEFEFE"/>
<path d="M24.5327 15.2085C23.4956 17.4375 23.0095 19.7205 21.2301 21.6563C21.0061 21.9014 20.7605 22.1405 20.493 22.3747C20.493 22.3747 25.5701 20.2364 28.032 15.9723C30.4558 11.7753 31.4276 8.87876 31.4603 8.78916V8.78701C31.4603 8.78701 25.701 12.6979 24.5327 15.2085Z" fill="#3b6647"/>
<path d="M31.4603 8.78701C30.5868 9.84954 29.7354 10.9264 28.8836 12.0061L27.6063 13.6233C27.1806 14.1621 26.7601 14.7024 26.3235 15.2299L25.6684 16.0235C25.45 16.2922 25.2315 16.5608 25.0242 16.8342C24.6093 17.3828 24.1945 17.9316 23.7904 18.4911C22.9878 19.607 22.2073 20.7398 21.4649 21.8996C22.3274 20.8281 23.1736 19.7435 24.0197 18.662C24.4454 18.1242 24.8659 17.5799 25.2972 17.0476C25.5101 16.7802 25.7229 16.5127 25.9414 16.249L26.6018 15.4603C27.4754 14.388 28.2996 13.2896 29.1076 12.1766C29.9155 11.0635 30.707 9.93851 31.4603 8.78701Z" fill="#FEFEFE"/>
<path d="M24.5327 15.2085C23.4956 17.4375 23.0095 19.7205 21.2301 21.6563C21.2682 21.7502 21.3176 21.8315 21.3832 21.8971L31.4603 8.78916V8.78701C31.4603 8.78701 25.701 12.6979 24.5327 15.2085Z" fill="#3b6647"/>
<path d="M23.9981 18.7173L25.6247 17.2832C26.1707 16.8078 26.7221 16.3376 27.2461 15.8349C27.5028 15.5805 27.754 15.3179 27.9831 15.0363C28.2178 14.7563 28.4307 14.4527 28.5837 14.1187C28.6547 13.9515 28.7147 13.7731 28.7692 13.6044C28.8239 13.4362 28.8948 13.2714 28.9767 13.111C29.1404 12.7899 29.3426 12.4886 29.5827 12.2194C29.3207 12.4705 29.1077 12.7675 28.9277 13.0831C28.8402 13.2424 28.7583 13.4083 28.6929 13.5781C28.6329 13.7528 28.5727 13.9178 28.4964 14.0787C28.1797 14.718 27.6721 15.2486 27.159 15.7481C26.6457 16.2548 26.0943 16.7232 25.5648 17.2149C25.0298 17.7047 24.5058 18.201 23.9981 18.7173Z" fill="#3b6647"/>
<path d="M24.5168 17.8194C24.5003 17.7844 24.5059 17.744 24.5114 17.7068C24.5114 17.6691 24.5168 17.631 24.5277 17.5933C24.5386 17.5179 24.555 17.4431 24.5714 17.3688C24.6043 17.2194 24.6423 17.0715 24.686 16.9246C24.7679 16.6298 24.8662 16.3387 24.9699 16.0532C25.0791 15.7677 25.1938 15.485 25.3301 15.2137C25.4721 14.945 25.6249 14.6831 25.8379 14.4713C26.2583 14.0306 26.7114 13.6137 27.1426 13.1742C27.3555 12.9542 27.5683 12.7319 27.7705 12.4993C27.8687 12.3821 27.967 12.2613 28.0542 12.1347C28.0979 12.072 28.1417 12.0058 28.1744 11.9365C28.2017 11.869 28.24 11.7881 28.2072 11.7138C28.2344 11.7896 28.1907 11.8635 28.1579 11.9279C28.1197 11.9939 28.076 12.0561 28.027 12.1162C27.9342 12.2358 27.8305 12.3488 27.7266 12.4595C27.5138 12.6828 27.2953 12.8962 27.0771 13.1075C26.6349 13.5322 26.1818 13.9493 25.7506 14.387C25.5322 14.6153 25.3739 14.8889 25.2319 15.1652C25.0955 15.4428 24.9808 15.729 24.8826 16.0221C24.7844 16.3143 24.7025 16.6102 24.6314 16.9098C24.5932 17.0598 24.566 17.2105 24.5386 17.3624C24.5277 17.4388 24.5168 17.5142 24.5059 17.5911C24.5059 17.6293 24.5003 17.668 24.5003 17.7062C24.5003 17.7433 24.4949 17.7854 24.5168 17.8194Z" fill="#FEFEFE"/>
<path d="M37.471 82.0417C41.3251 82.2647 39.8075 85.3452 41.1504 91.004C42.4934 96.6606 47.7997 100.036 59.5803 100.436C71.372 100.835 73.0479 108.915 73.0479 108.915C73.0479 108.915 72.8294 108.422 72.7368 107.552C72.3438 103.811 69.7779 93.1166 53.7609 85.048C46.0855 81.1802 41.1559 80.7441 37.6457 81.8856C37.5585 82.0161 37.471 82.0417 37.471 82.0417Z" fill="#E5E4E2"/>
<path d="M37.471 82.0417C41.8764 81.4282 40.5007 85.0761 41.8438 90.735C43.1813 96.3914 48.1163 99.0938 59.9024 99.4935C71.6941 99.8937 73.0479 108.676 73.0479 108.676C73.0315 108.213 73.0098 107.759 72.9769 107.312C71.9615 90.5381 64.5863 82.4295 52.8383 79.6894C42.7282 77.3331 38.3609 80.7798 37.6075 81.8367C37.5146 81.9659 37.471 82.0417 37.471 82.0417Z" fill="#3b6647"/>
<path d="M37.4658 82.2084C41.8712 81.5959 40.5009 85.2438 41.844 90.9028C43.1815 96.5588 48.1165 99.2611 59.9026 99.6611C71.6888 100.061 73.0427 108.842 73.0427 108.842C73.0427 108.842 73.07 108.349 72.9771 107.48C72.5787 103.739 70.0128 93.044 54.0013 84.976C46.3204 81.1085 41.1125 80.8611 37.6023 82.0038C37.5148 82.1331 37.4658 82.2084 37.4658 82.2084Z" fill="#3b6647"/>
<path d="M37.6075 81.8367C39.3654 81.4092 41.1829 81.348 42.9626 81.5169C44.7478 81.6779 46.4946 82.0913 48.1979 82.641C51.5988 83.7593 54.8143 85.4065 57.8223 87.3554C58.1988 87.5966 58.5702 87.8506 58.9414 88.0977L60.0386 88.8812L61.1304 89.6682L62.1841 90.5031C63.6089 91.5963 64.9245 92.815 66.2018 94.0723L67.1299 95.0461C67.4303 95.3741 67.714 95.7242 68.0088 96.0593C68.309 96.3923 68.5712 96.7553 68.8496 97.1076C68.986 97.2865 69.128 97.4579 69.2535 97.6441L69.6357 98.1965C70.6511 99.6699 71.5409 101.263 71.9831 103.019C71.8685 102.12 71.5627 101.252 71.2133 100.415C70.8476 99.5831 70.4382 98.7659 69.9577 97.9903C69.0025 96.4388 67.8833 94.9859 66.6386 93.653C65.3939 92.3231 64.0619 91.0725 62.648 89.929L61.5835 89.0706L60.4808 88.2649L59.3781 87.4629C59.0014 87.2095 58.6248 86.9486 58.2426 86.7017C56.7086 85.7192 55.1255 84.8158 53.4769 84.0264C52.6524 83.637 51.8172 83.2703 50.9656 82.9427C50.1194 82.6037 49.2515 82.3194 48.378 82.0629C46.6256 81.5516 44.8132 81.2101 42.9899 81.1373C42.0727 81.1091 41.1611 81.1419 40.2603 81.25C39.3541 81.3557 38.4592 81.5277 37.6075 81.8367Z" fill="#FEFEFE"/>
<path d="M58.8217 98.4018C57.8281 98.06 56.993 97.3625 56.3542 96.547C55.7211 95.722 55.2788 94.7639 54.9785 93.7687C54.6728 92.7713 54.5527 91.7321 54.4599 90.6941C54.3781 89.6286 54.0395 88.5783 53.4663 87.677C52.8986 86.7722 52.1561 85.9923 51.3319 85.3263C50.513 84.656 49.6233 84.0795 48.6843 83.592C46.8172 82.6109 44.8246 81.8815 42.783 81.406C43.7929 81.6904 44.7809 82.0338 45.7528 82.4282C46.7243 82.819 47.6798 83.2561 48.5914 83.7677C49.503 84.2776 50.3873 84.8403 51.1845 85.5087C51.987 86.168 52.702 86.9367 53.248 87.814C53.8103 88.6816 54.1378 89.6852 54.2252 90.71C54.3343 91.7587 54.449 92.8195 54.7874 93.8271C55.115 94.8339 55.5899 95.8029 56.256 96.626C56.6054 97.0245 56.9766 97.4067 57.4133 97.7063C57.8446 98.0088 58.314 98.2704 58.8217 98.4018Z" fill="#FEFEFE"/>
<path d="M41.4562 81.4421C41.8492 81.6502 42.2313 81.8798 42.5972 82.1321C42.9629 82.38 43.3178 82.6469 43.6508 82.9346C44.3223 83.5101 44.9336 84.1558 45.4085 84.8901C45.8999 85.6173 46.2438 86.4371 46.424 87.2959C46.5112 87.7249 46.5658 88.1644 46.5605 88.6067C46.5823 89.0494 46.5222 89.4904 46.4731 89.9344C46.6969 89.0718 46.7679 88.1541 46.6205 87.2594C46.4786 86.3636 46.1292 85.5026 45.6269 84.7482C45.1247 83.9903 44.4913 83.3303 43.7763 82.7806C43.0666 82.2311 42.2915 81.7636 41.4562 81.4421Z" fill="#FEFEFE"/>
<path d="M48.8535 82.0416C49.5633 81.9716 50.2674 81.9289 50.977 81.9289C51.332 81.9187 51.6868 81.9327 52.0417 81.9327C52.3965 81.9431 52.7458 81.9661 53.1008 81.9814C54.5145 82.0731 55.9176 82.2653 57.2933 82.5878C57.6371 82.6731 57.9865 82.736 58.325 82.838L59.3404 83.1432C59.6789 83.2447 60.0011 83.3871 60.334 83.5071L60.8254 83.695C60.9891 83.7602 61.1474 83.8397 61.3111 83.9117L62.2719 84.355L63.1945 84.8785C63.3528 84.9653 63.5111 85.0478 63.6586 85.1383L64.1007 85.4374L64.9852 86.0331L64.139 85.3814L63.7133 85.0566C63.5657 84.9572 63.4129 84.8654 63.2656 84.7703L62.3538 84.2105L61.393 83.7304C60.1048 83.1179 58.7454 82.6469 57.3534 82.3351C55.9559 82.0299 54.5366 81.833 53.1116 81.7827C51.6868 81.7379 50.2565 81.7962 48.8535 82.0416Z" fill="#FEFEFE"/>
<path d="M42.0841 81.1374C42.1223 81.1199 45.8564 79.4211 49.3173 79.9917L49.3556 79.7356C45.8181 79.1521 42.013 80.884 41.9749 80.9021L42.0841 81.1374Z" fill="#FEFEFE"/>
<path d="M38.7481 80.6652C38.7481 80.6652 38.7537 80.6652 38.7646 80.6626C38.77 80.6626 38.7755 80.6598 38.7809 80.6571C39.6161 80.4708 57.9095 76.1899 56.8887 60.8898C55.8624 45.5092 50.2942 37.1448 50.092 36.8516V36.8488C50.2559 37.2933 60.9339 65.9854 38.7481 80.6652Z" fill="#3b6647"/>
<path d="M38.7481 80.6652C39.8072 80.3804 40.8445 79.9998 41.8489 79.5615C42.8588 79.1247 43.847 78.634 44.8079 78.0875C46.7185 76.9842 48.5036 75.6501 50.0758 74.0801C50.862 73.2968 51.5824 72.4428 52.2377 71.5411C52.8981 70.6436 53.4658 69.6763 53.9572 68.6751C54.4594 67.6777 54.8361 66.6181 55.1473 65.5473L55.3657 64.7369C55.4311 64.466 55.4748 64.1898 55.5348 63.9164C55.655 63.3693 55.7151 62.8195 55.8023 62.2699C55.9224 61.1672 56.0153 60.0605 56.0261 58.9524C56.048 57.8441 56.0099 56.7364 55.9279 55.6333C55.7533 53.4273 55.3983 51.2415 54.8798 49.0977C54.6123 48.0266 54.3229 46.9632 53.9953 45.9128C53.6624 44.863 53.2968 43.8246 52.8981 42.799C52.4942 41.7754 52.0629 40.7644 51.5988 39.768C51.1404 38.7718 50.6436 37.7908 50.0867 36.8443C51.0366 38.8221 51.85 40.8555 52.5379 42.9288C53.2475 44.9962 53.8261 47.1034 54.2848 49.2319C54.5085 50.2981 54.6943 51.3697 54.8579 52.4452C55.0053 53.5217 55.1309 54.6021 55.1909 55.6856C55.3383 57.8502 55.2946 60.0267 55.0272 62.1738C54.9508 62.7076 54.8907 63.2487 54.7761 63.7728C54.7268 64.0354 54.6832 64.3012 54.6177 64.5621L54.4157 65.3422C54.1209 66.3735 53.7606 67.3898 53.2968 68.3567C52.3904 70.31 51.1129 72.0787 49.6446 73.6581C48.1488 75.2226 46.4509 76.5966 44.6113 77.7635C42.777 78.9375 40.8117 79.9195 38.7481 80.6652Z" fill="#FEFEFE"/>
<path d="M38.7809 80.6571C39.6161 80.4708 57.9095 76.1899 56.8887 60.8898C55.8624 45.5092 50.2942 37.1448 50.092 36.8516C50.2886 37.205 57.3916 50.2549 55.257 63.3249C53.1498 76.2319 39.4796 80.4496 38.7809 80.6571Z" fill="#3b6647"/>
<path d="M19.0901 94.9375C19.2103 93.6256 19.5869 92.3857 20.0291 91.1853C20.4768 89.9854 21.0226 88.832 21.6232 87.7117C22.24 86.598 22.9059 85.515 23.632 84.4659C23.9815 83.9374 24.3745 83.4301 24.7457 82.9113C25.1224 82.3628 25.5209 81.8038 25.8867 81.2366C27.306 78.9263 28.3051 76.3776 28.8728 73.7605C29.1566 72.4497 29.3259 71.1214 29.3914 69.7929C29.4243 69.1279 29.4296 68.4634 29.3968 67.801C29.3696 67.1384 29.3096 66.4764 29.1894 65.8256C28.8565 68.4388 28.2777 70.9578 27.4971 73.39C26.7001 75.8163 25.6573 78.1331 24.3417 80.2786C24.0087 80.8124 23.6485 81.3196 23.2991 81.8541L22.7313 82.6855C22.5458 82.9628 22.3547 83.2352 22.1909 83.5284C21.847 84.1048 21.4921 84.6736 21.1973 85.2784C20.8753 85.8659 20.6078 86.486 20.3348 87.0992C19.8271 88.3433 19.4177 89.6307 19.172 90.9522C19.0409 91.61 18.9754 92.2809 18.9426 92.948C18.9264 93.6161 18.9426 94.2899 19.0901 94.9375Z" fill="#3b6647"/>
<path d="M18.6755 119.47C18.2255 115.655 17.9704 111.444 18.1184 107.073C18.6698 90.9973 22.977 90.7632 30.4997 87.0149C37.913 83.329 39.2887 80.6058 39.3269 80.5226C35.6638 83.3752 26.1869 86.4728 22.8295 88.8475C19.4885 91.22 17.1412 95.5398 16.1531 107.489C15.844 111.25 16.1487 115.437 16.7314 119.47H18.6755Z" fill="#3b6647"/>
<path d="M16.9778 112.021C16.9778 112.021 14.9199 93.3857 5.39913 94.0343C5.39913 94.0343 11.9664 98.6828 16.9778 112.021Z" fill="#3b6647"/>
<path d="M29.2007 67.3379C29.2007 67.3379 29.299 67.3946 29.4737 67.4837C31.0841 68.3085 39.5293 71.9946 45.3105 62.4056C45.3105 62.4056 45.2669 62.4292 45.1795 62.4734C44.508 62.8053 41.2326 64.2535 37.2529 63.3244C32.7764 62.2758 29.2007 67.3379 29.2007 67.3379Z" fill="#3b6647"/>
<path d="M29.5714 67.3379C30.1174 66.8784 30.7015 66.4693 31.3183 66.1227C31.9353 65.774 32.5849 65.4829 33.2672 65.2957C34.6211 64.865 36.0515 65.1745 37.4816 65.1991C38.912 65.2319 40.3695 65.168 41.7507 64.7345C42.4439 64.532 43.0991 64.2071 43.7049 63.825L44.1472 63.5172C44.2892 63.4035 44.4202 63.2841 44.5567 63.1678L44.7586 62.9925L44.9444 62.7976L45.3105 62.4056C44.306 63.4194 43.0609 64.1755 41.6961 64.5434C41.0137 64.7224 40.3204 64.8556 39.6161 64.9071C38.9064 64.9605 38.2022 64.9644 37.4925 64.9398C36.7828 64.9223 36.0732 64.8743 35.3581 64.8409C34.6375 64.8006 33.8949 64.8804 33.2072 65.1053C31.826 65.5437 30.5978 66.3472 29.5714 67.3379Z" fill="#FEFEFE"/>
<path d="M29.4737 67.4837C31.0841 68.3085 39.5293 71.9946 45.3105 62.4056C45.3105 62.4056 45.2669 62.4292 45.1795 62.4734C41.6093 66.3073 36.3578 65.0615 34.3161 64.9466C32.5637 64.8482 30.2544 66.7773 29.4737 67.4837Z" fill="#3b6647"/>
<path d="M1.09174 70.24C1.10277 70.1542 1.2337 69.5058 1.67587 68.8179C2.4511 67.6207 4.18709 66.3178 7.97023 67.7509C13.9807 70.0299 20.6133 76.7505 29.2006 67.7348C29.3262 67.6055 29.446 67.473 29.5714 67.3379C29.5714 67.3379 25.2318 54.8775 13.8114 56.305C2.56567 57.7098 1.13534 69.8585 1.09174 70.24Z" fill="#3b6647"/>
<path d="M1.30459 68.99C1.99783 67.7809 2.92044 66.7349 3.94674 65.8254C4.97315 64.9127 6.11946 64.1499 7.32597 63.5151C9.77713 62.2987 12.463 61.6143 15.1926 61.3871C17.9166 61.1202 20.6844 61.3871 23.2502 62.3054C24.5167 62.7961 25.7286 63.4458 26.8095 64.2925C27.8849 65.1326 28.8509 66.144 29.5714 67.3379C29.0036 66.0595 28.0978 64.9464 27.055 63.9998C26.0016 63.0566 24.7786 62.3026 23.4739 61.7409L22.4749 61.3646C22.3112 61.296 22.1419 61.2517 21.9672 61.2081L21.454 61.0733C20.7718 60.8647 20.062 60.7904 19.3633 60.6699C19.2758 60.6567 19.1885 60.6392 19.1013 60.6293L18.8338 60.6141L18.3042 60.5831C17.9493 60.565 17.5946 60.5382 17.2452 60.5273C16.5355 60.5567 15.8312 60.5585 15.1269 60.6113L14.0734 60.7414C13.724 60.7926 13.3692 60.8096 13.0252 60.8941L11.9881 61.1092C11.8134 61.1459 11.6387 61.1791 11.4694 61.2189L10.9617 61.3724L9.94645 61.6819C9.60782 61.7981 9.28578 61.9395 8.95273 62.0679L8.46151 62.2643C8.29777 62.3315 8.14479 62.4183 7.9865 62.4969C7.66992 62.6591 7.35335 62.8146 7.04209 62.9823C5.81378 63.6865 4.6728 64.5473 3.68478 65.5507C2.70753 66.5589 1.84499 67.7 1.30459 68.99Z" fill="#FEFEFE"/>
<path d="M1.67587 68.8179C2.4511 67.6207 4.18709 66.3178 7.97023 67.7509C13.9807 70.0299 20.9843 76.3536 29.5714 67.3379C29.5714 67.3379 27.4539 61.6118 19.0741 60.906C11.5951 60.275 3.96874 62.8937 1.67587 68.8179Z" fill="#3b6647"/>
<path d="M25.1061 63.2711C23.8669 63.0664 22.5894 63.0724 21.3392 63.3021C20.1 63.5358 18.8718 64.0555 17.9546 64.9771C17.4961 65.447 17.2068 66.0002 16.7482 66.4176C16.317 66.8537 15.8256 67.2333 15.2796 67.5258C14.7394 67.8228 14.1498 68.0424 13.5492 68.1815C12.9432 68.3289 12.3153 68.3976 11.6876 68.3763C12.9377 68.5206 14.2316 68.2699 15.3725 67.7027C15.9511 67.4276 16.4589 67.0286 16.9174 66.5853C17.0267 66.4701 17.1467 66.3599 17.2504 66.2409L17.5507 65.8676L17.8399 65.5001C17.9328 65.3793 18.0421 65.2708 18.1403 65.1582C18.9919 64.269 20.1765 63.7663 21.383 63.4971C21.9888 63.3594 22.6059 63.2815 23.2336 63.2497C23.8559 63.2104 24.4837 63.2181 25.1061 63.2711Z" fill="#FEFEFE"/>
<path d="M15.6237 61.714C14.8102 61.8205 14.0023 61.9963 13.2054 62.1993C12.4083 62.3987 11.6221 62.6535 10.847 62.9468C10.4648 63.0909 10.0881 63.2617 9.70592 63.4292C9.34029 63.6193 8.96364 63.7923 8.61968 64.0206C7.91542 64.4529 7.23308 64.9573 6.75808 65.6375C6.90547 65.4951 7.05287 65.3526 7.19494 65.209C7.35323 65.0779 7.52228 64.9596 7.68057 64.835C7.83899 64.7074 8.01921 64.6108 8.1884 64.4971C8.35759 64.3825 8.53781 64.2881 8.7179 64.1931C9.43319 63.805 10.181 63.4763 10.9452 63.1886C11.704 62.8928 12.4794 62.6345 13.2598 62.3904C13.6529 62.2676 14.0405 62.1524 14.439 62.0428C14.832 61.9253 15.225 61.8205 15.6237 61.714Z" fill="#FEFEFE"/>
<path d="M24.1348 60.905C23.7962 60.8113 23.4632 60.7071 23.1358 60.5863C22.8082 60.4744 22.4806 60.3494 22.1585 60.2207C21.5089 59.9585 20.8703 59.6812 20.2369 59.3849C19.6037 59.0934 18.9869 58.7735 18.359 58.4578L16.5085 57.4741C16.7869 57.6816 17.0817 57.8781 17.3709 58.0779C17.6657 58.263 17.9605 58.4535 18.2663 58.6331C18.8667 58.9919 19.4946 59.3204 20.1279 59.6196C20.7665 59.9127 21.4161 60.1872 22.0875 60.4072C22.7535 60.6252 23.436 60.8217 24.1348 60.905Z" fill="#FEFEFE"/>
<path d="M14.805 59.8103C14.1118 59.5575 13.3857 59.4063 12.6541 59.3066C11.9226 59.2061 11.1802 59.1858 10.4432 59.2361C9.70079 59.3054 8.96928 59.456 8.27047 59.7214C7.57711 59.9959 6.94395 60.4016 6.40901 60.9053C6.72559 60.7148 7.00402 60.478 7.34785 60.3372C7.51172 60.2602 7.65898 60.1553 7.83375 60.1008L8.34144 59.9091C9.02922 59.6962 9.73894 59.5565 10.465 59.4949C11.1856 59.4396 11.9118 59.4528 12.6379 59.5035C12.998 59.5281 13.3639 59.5697 13.7241 59.6247C14.0844 59.6695 14.4448 59.7367 14.805 59.8103Z" fill="#FEFEFE"/>
<path d="M22.4856 52.7081C24.8658 57.4013 28.0592 61.2462 28.971 66.796C29.0857 67.4969 29.1619 68.2262 29.2002 68.9894C29.2002 68.9894 32.3174 57.6165 28.3979 47.8327C24.5382 38.2023 20.9571 32.728 20.8424 32.5587V32.5532C20.8424 32.5532 19.805 47.4226 22.4856 52.7081Z" fill="#3b6647"/>
<path d="M20.8424 32.5532C21.4702 35.4319 22.1583 38.2929 22.8516 41.1513L23.8834 45.4377C24.2273 46.8658 24.5767 48.293 24.8879 49.7243L25.3573 51.8806C25.5211 52.6005 25.685 53.3201 25.8705 54.0342C26.2418 55.4617 26.6185 56.8859 27.0278 58.3005C27.8412 61.1315 28.7148 63.9446 29.6865 66.7261C29.0259 63.855 28.3162 61 27.6175 58.1449C27.2734 56.7151 26.9133 55.2908 26.5857 53.86C26.4219 53.1455 26.2526 52.4315 26.0999 51.7168L25.6468 49.5561C24.9916 46.6759 24.2383 43.83 23.4358 40.9973C22.6279 38.1652 21.7813 35.3455 20.8424 32.5532Z" fill="#FEFEFE"/>
<path d="M22.4856 52.7081C24.8658 57.4013 28.0592 61.2462 28.971 66.796C29.173 66.8637 29.3749 66.887 29.5714 66.8637L20.8424 32.5587V32.5532C20.8424 32.5532 19.805 47.4226 22.4856 52.7081Z" fill="#3b6647"/>
<path d="M27.6826 58.2524L27.4207 53.6167C27.3442 52.0724 27.2787 50.5234 27.1259 48.9769C27.0384 48.2051 26.9293 47.4336 26.7656 46.6716C26.5962 45.9101 26.367 45.1539 26.0067 44.4536C25.8266 44.1064 25.5973 43.7761 25.3843 43.4627C25.1824 43.139 24.9969 42.8016 24.833 42.4534C24.5055 41.7579 24.2708 41.017 24.1343 40.2551C24.2107 41.0269 24.4291 41.7823 24.7183 42.5047C24.8711 42.8639 25.0459 43.2126 25.2478 43.5489C25.4554 43.8841 25.6627 44.1985 25.8266 44.543C26.4817 45.9286 26.7054 47.4769 26.8692 49.0041C27.0384 50.5377 27.0985 52.0849 27.2241 53.6297C27.3442 55.1735 27.486 56.7163 27.6826 58.2524Z" fill="#FEFEFE"/>
<path d="M26.8584 56.1918C26.7765 56.1748 26.7165 56.1094 26.6564 56.0548C26.6018 55.9979 26.5417 55.9386 26.4871 55.8774C26.3781 55.7567 26.2744 55.6306 26.1705 55.504C25.9632 55.249 25.7666 54.9875 25.5755 54.7216C25.1879 54.1932 24.8222 53.6495 24.4837 53.0905C24.1506 52.5305 23.8231 51.9643 23.5503 51.3741C23.2826 50.7834 23.0479 50.1732 22.966 49.5393C22.7859 48.2444 22.6823 46.9333 22.5075 45.6295C22.4256 44.9784 22.3329 44.3265 22.2073 43.679C22.1418 43.3564 22.0653 43.0343 21.967 42.7183C21.9179 42.5604 21.8633 42.4043 21.7923 42.2546C21.7214 42.1123 21.6286 41.9469 21.4649 41.8982C21.6232 41.9598 21.694 42.1253 21.7596 42.2706C21.8197 42.4211 21.8633 42.5779 21.9016 42.7368C21.978 43.0546 22.0326 43.3772 22.0817 43.7009C22.1799 44.3484 22.251 45.0002 22.3111 45.6525C22.4421 46.9584 22.5512 48.2651 22.7095 49.5748C22.8023 50.2468 23.0535 50.8763 23.3372 51.4741C23.6267 52.0707 23.9487 52.6477 24.3145 53.1975C24.6801 53.7477 25.0678 54.2828 25.4773 54.7981C25.6847 55.0541 25.8975 55.3053 26.1159 55.5481C26.2306 55.6699 26.3398 55.7906 26.46 55.9046C26.5199 55.9614 26.58 56.0172 26.6455 56.0695C26.7054 56.1187 26.7765 56.1809 26.8584 56.1918Z" fill="#FEFEFE"/>
<path d="M16.5085 112.676C16.5085 112.676 16.7323 112.517 17.1363 112.203C18.2881 111.302 20.8757 109.116 23.6653 105.672C26.6733 101.96 31.7283 100.244 35.2058 100.504C35.9919 100.56 36.7015 100.721 37.2857 100.981C35.7518 100.252 24.9535 95.4155 20.3408 101.233C17.5019 104.818 19.5819 107.66 16.5085 112.676Z" fill="#3b6647"/>
<path d="M37.4709 101.068C36.4501 100.665 35.402 100.303 34.3156 100.078L33.9061 99.9871C33.7696 99.9605 33.6331 99.9424 33.4967 99.9196C33.2237 99.8769 32.9508 99.83 32.6724 99.7922C32.121 99.7422 31.5642 99.6851 31.0019 99.6918C29.8827 99.6739 28.7582 99.7856 27.6609 100.056C26.5637 100.327 25.5046 100.748 24.5165 101.306C23.5338 101.872 22.633 102.583 21.8634 103.412C21.1045 104.239 20.4167 105.117 19.8108 106.048C19.1938 106.974 18.6589 107.946 18.1786 108.941C17.709 109.941 17.2836 110.963 16.9778 112.021C17.9169 110.035 19.0301 108.147 20.3076 106.396C20.9572 105.529 21.6395 104.683 22.3928 103.923C22.5894 103.742 22.7695 103.545 22.9715 103.371L23.5774 102.858L24.2271 102.396C24.4454 102.246 24.6801 102.12 24.9041 101.98C26.7438 100.918 28.8619 100.371 31.0129 100.297C31.5479 100.258 32.0882 100.293 32.6288 100.298C32.9016 100.315 33.169 100.34 33.442 100.36C33.5732 100.373 33.7096 100.38 33.8461 100.396L34.25 100.452C35.3309 100.569 36.3956 100.828 37.4709 101.068Z" fill="#FEFEFE"/>
<path d="M16.9778 112.021L17.1363 112.203C18.2881 111.302 20.8757 109.116 23.6653 105.672C26.6733 101.96 31.7283 100.244 35.2058 100.504C27.23 98.9122 23.785 102.793 21.6395 104.46C19.3031 106.276 16.9778 112.021 16.9778 112.021Z" fill="#3b6647"/>
<path d="M78.578 74.22C78.578 74.22 78.4797 74.2381 78.3104 74.2561C76.7492 74.4398 68.7624 74.8807 66.9665 65.3272C66.9665 65.3272 66.9937 65.3602 67.0483 65.4217C67.496 65.8962 69.7179 68.0654 73.2389 68.5148C77.2023 69.0187 78.578 74.22 78.578 74.22Z" fill="#3b6647"/>
<path d="M78.2721 74.1077C77.972 73.5688 77.6172 73.0585 77.2187 72.5896C76.8256 72.1189 76.3834 71.6854 75.8866 71.3273C74.915 70.5662 73.6594 70.3846 72.4856 69.9707C71.3119 69.5651 70.1437 69.0705 69.1501 68.2997C68.648 67.9247 68.2167 67.4623 67.84 66.9681L67.5725 66.5835C67.496 66.4492 67.4195 66.3109 67.3431 66.1756L67.234 65.9714L67.1412 65.7563L66.9665 65.3272C67.4742 66.4569 68.2603 67.4486 69.2593 68.1611C69.7561 68.5132 70.2802 68.8325 70.8424 69.0874C71.3994 69.3452 71.9725 69.5625 72.5567 69.7579C73.1407 69.9583 73.7303 70.1347 74.3254 70.3239C74.9204 70.5095 75.499 70.7983 75.9903 71.1892C76.9839 71.9646 77.7427 72.9913 78.2721 74.1077Z" fill="#FEFEFE"/>
<path d="M78.3104 74.2561C76.7492 74.4398 68.7624 74.8807 66.9665 65.3272C66.9665 65.3272 66.9937 65.3602 67.0483 65.4217C68.7898 69.6225 73.4411 70.1996 75.1388 70.7251C76.5909 71.1756 77.8902 73.4444 78.3104 74.2561Z" fill="#3b6647"/>
<path d="M78.4196 73.9577C78.4196 73.9577 79.7024 75.9306 78.8235 77.2538C78.8235 77.2538 79.3858 76.2526 78.4196 73.9577Z" fill="#3b6647"/>
<path d="M52.4396 111.005C52.4396 111.005 52.4015 111.092 52.3142 111.24C51.528 112.602 47.1116 119.27 38.3715 115.009C38.3715 115.009 38.4152 115.005 38.5027 114.997C39.1469 114.92 42.2149 114.433 44.6768 111.879C47.45 109.003 52.4396 111.005 52.4396 111.005Z" fill="#3b6647"/>
<path d="M52.1721 111.181C51.5553 111.103 50.9385 111.081 50.3215 111.12C49.7102 111.157 49.0987 111.251 48.5145 111.435C47.3245 111.76 46.4291 112.66 45.3975 113.353C44.3711 114.051 43.274 114.693 42.0619 115.028C41.467 115.208 40.8336 115.279 40.2113 115.287L39.7472 115.271C39.5889 115.253 39.4361 115.229 39.2831 115.209L39.054 115.177L38.8247 115.122L38.3715 115.009C39.5835 115.273 40.8499 115.238 42.0183 114.862C42.597 114.672 43.1647 114.441 43.705 114.145C44.2455 113.853 44.7641 113.521 45.2665 113.168C45.7742 112.82 46.2708 112.451 46.7785 112.089C47.2808 111.721 47.8595 111.43 48.4655 111.269C49.6773 110.938 50.9547 110.942 52.1721 111.181Z" fill="#FEFEFE"/>
<path d="M52.3142 111.24C51.528 112.602 47.1116 119.27 38.3715 115.009C38.3715 115.009 38.4152 115.005 38.5027 114.997C42.9081 116.108 46.1508 112.723 47.5865 111.676C48.8148 110.778 51.4078 111.094 52.3142 111.24Z" fill="#3b6647"/>
<path d="M52.1398 110.974C52.1398 110.974 54.4872 111.124 55.0221 112.621C55.0221 112.621 54.5583 111.571 52.1398 110.974Z" fill="#DBDAD7"/>
<path d="M11.6169 27.8789C11.6169 27.8789 11.5186 27.8958 11.3493 27.9144C9.78804 28.0973 1.8014 28.5396 0 18.986C0 18.986 0.0325691 19.0177 0.0871915 19.0799C0.534943 19.5548 2.75672 21.7237 6.2779 22.1736C10.2357 22.6764 11.6169 27.8789 11.6169 27.8789Z" fill="#3b6647"/>
<path d="M11.3111 27.7664C11.0109 27.2265 10.656 26.7173 10.2576 26.2471C9.85901 25.7772 9.42228 25.3431 8.92549 24.9856C7.95369 24.2242 6.69814 24.0428 5.52459 23.6297C4.35078 23.2234 3.18267 22.7288 2.18895 21.958C1.6867 21.5829 1.25542 21.1212 0.878771 20.6265L0.611368 20.2416C0.534947 20.1075 0.458519 19.9692 0.381972 19.8339L0.272726 19.6291L0.180088 19.4151L0 18.986C0.513146 20.1145 1.29358 21.1069 2.29262 21.8194C2.795 22.1721 3.31891 22.4908 3.87591 22.7457C4.4381 23.0034 5.01144 23.2206 5.59543 23.416C6.17954 23.6165 6.76912 23.7929 7.36413 23.9823C7.95928 24.1678 8.53794 24.4566 9.02916 24.8475C10.0173 25.6227 10.7815 26.6501 11.3111 27.7664Z" fill="#FEFEFE"/>
<path d="M11.3493 27.9144C9.78804 28.0973 1.8014 28.5396 0 18.986C0 18.986 0.0325691 19.0177 0.0871915 19.0799C1.82877 23.2808 6.47978 23.8573 8.17763 24.3835C9.62975 24.8344 10.929 27.1032 11.3493 27.9144Z" fill="#3b6647"/>
<path d="M11.4584 27.6165C11.4584 27.6165 12.7413 29.5889 11.857 30.9127C11.857 30.9127 12.4246 29.9115 11.4584 27.6165Z" fill="#3b6647"/>
<path d="M51.8501 28.4037C51.8501 28.4037 49.2189 28.9835 48.7493 28.3644C48.7493 28.3644 49.9067 28.7395 51.812 28.2662L51.8501 28.4037Z" fill="#3b6647"/>
<path d="M51.7357 28.3389C52.713 27.7991 51.512 26.6838 51.8995 25.3136C52.3145 23.9593 54.8312 23.3094 57.697 21.6385C60.454 19.8976 60.7214 17.9224 60.7214 17.9224C60.7214 17.9224 60.6614 18.0531 60.6178 18.2418C60.443 19.0586 59.6679 21.6364 55.8028 25.5647C53.903 27.4142 52.6638 28.1478 51.7795 28.3498C51.7577 28.3336 51.7357 28.3389 51.7357 28.3389Z" fill="#E5E4E2"/>
<path d="M51.7357 28.3389C52.8495 27.9077 51.6811 26.6534 52.0742 25.2817C52.4837 23.9256 54.8912 23.4615 57.7571 21.7879C60.5141 20.0453 60.716 17.9709 60.716 17.9709C60.6996 18.067 60.6832 18.1614 60.6669 18.2564C60.1374 21.8647 58.3686 24.6363 55.5573 26.8402C53.0515 28.6831 51.9595 28.4975 51.7686 28.3661C51.7468 28.3496 51.7357 28.3389 51.7357 28.3389Z" fill="#3b6647"/>
<path d="M51.7357 28.304C52.8495 27.8727 51.6867 26.6175 52.0742 25.2463C52.489 23.8914 54.8966 23.4273 57.7571 21.754C60.5141 20.0115 60.716 17.9381 60.716 17.9381C60.716 17.9381 60.7105 18.0342 60.6669 18.2225C60.4922 19.0393 59.7224 21.6181 55.8628 25.5487C53.9576 27.3994 52.6529 28.1292 51.7686 28.3306C51.7468 28.3142 51.7357 28.304 51.7357 28.304Z" fill="#3b6647"/>
<path d="M51.7686 28.3661C52.2163 28.2346 52.6748 28.0148 53.1224 27.7486C53.5699 27.482 54.0067 27.165 54.4324 26.8226C55.2732 26.1316 56.0648 25.3466 56.8017 24.5227C56.8946 24.4201 56.9819 24.3153 57.0747 24.212L57.6097 23.5783L57.8717 23.2556C58.2157 22.8271 58.5377 22.3866 58.8543 21.9445L59.0837 21.6103C59.1601 21.4989 59.231 21.3864 59.3021 21.2746C59.3785 21.1627 59.4439 21.0495 59.515 20.9372C59.5478 20.8808 59.586 20.8247 59.6186 20.7686L59.7114 20.5999C59.9735 20.1505 60.2082 19.6947 60.3447 19.2722C60.2957 19.4726 60.2137 19.6941 60.1153 19.9168C60.0171 20.1407 59.908 20.3677 59.7825 20.5965C59.5368 21.0545 59.2583 21.5154 58.9525 21.9695C58.6414 22.4237 58.3194 22.8736 57.97 23.312L57.7133 23.6411L57.446 23.9641L57.1731 24.2864C57.0802 24.3923 56.9928 24.4987 56.8946 24.604C56.5234 25.0223 56.1357 25.4306 55.7317 25.8214C55.5298 26.0159 55.3224 26.2063 55.1094 26.3904C54.902 26.5759 54.6891 26.7523 54.4707 26.9235C54.034 27.2643 53.5864 27.5744 53.1278 27.8271C52.8984 27.9511 52.6693 28.0618 52.4399 28.1547C52.2107 28.247 51.9869 28.3245 51.7686 28.3661Z" fill="#FEFEFE"/>
<path d="M57.1836 22.072C56.938 22.2794 56.7251 22.5376 56.5613 22.7937C56.3922 23.0518 56.272 23.3112 56.1901 23.5596C56.1027 23.809 56.0591 24.0433 56.0263 24.2741C55.9936 24.51 55.9008 24.7775 55.7534 25.0455C55.606 25.3141 55.4205 25.5801 55.2129 25.8322C55.011 26.0844 54.7871 26.3262 54.5524 26.5544C54.0884 27.0108 53.5917 27.4279 53.0783 27.7958C53.3295 27.6037 53.5807 27.4011 53.8208 27.1892C54.0666 26.978 54.3067 26.7592 54.5306 26.5292C54.7598 26.2994 54.9782 26.0621 55.1801 25.813C55.3822 25.5648 55.5623 25.306 55.7042 25.0461C55.8462 24.7873 55.939 24.5302 55.9662 24.3026C56.0045 24.0679 56.0482 23.8298 56.141 23.5726C56.2337 23.3183 56.3649 23.0529 56.5395 22.7904C56.6269 22.6604 56.7251 22.5311 56.8343 22.4088C56.9434 22.287 57.0581 22.1692 57.1836 22.072Z" fill="#FEFEFE"/>
<path d="M52.7456 27.9594C52.8438 27.8637 52.9422 27.7655 53.035 27.664C53.1278 27.5635 53.215 27.4598 53.3025 27.3549C53.4717 27.1447 53.63 26.9275 53.7502 26.7075C53.8757 26.4891 53.9686 26.2686 54.023 26.0635C54.0505 25.9602 54.0668 25.8602 54.0668 25.7675C54.0776 25.6715 54.0668 25.5857 54.0612 25.4978C54.1051 25.6512 54.1159 25.8357 54.0723 26.0448C54.0285 26.2533 53.9358 26.4831 53.8047 26.7097C53.6738 26.9368 53.5154 27.1612 53.3297 27.3713C53.1496 27.5821 52.9531 27.7825 52.7456 27.9594Z" fill="#FEFEFE"/>
<path d="M54.5905 26.8646C54.7598 26.786 54.9346 26.7008 55.1092 26.6064C55.1966 26.5615 55.284 26.5108 55.3712 26.4639C55.4531 26.4136 55.5405 26.3613 55.6278 26.311C55.9718 26.1009 56.3103 25.8689 56.6432 25.6124C56.7251 25.5474 56.807 25.4862 56.8888 25.418L57.1346 25.2133C57.2164 25.145 57.2929 25.0692 57.3693 24.9975L57.4894 24.8889C57.5276 24.853 57.5658 24.8131 57.6041 24.776L57.8388 24.5472L58.0572 24.3071C58.0953 24.2666 58.1336 24.2274 58.1663 24.1871L58.2756 24.0613L58.4829 23.8108L58.2809 24.068L58.1827 24.1968C58.1444 24.2389 58.1062 24.2792 58.0735 24.3208L57.8551 24.5674L57.6259 24.8034C57.3147 25.1122 56.9871 25.401 56.6541 25.6588C56.3211 25.9143 55.9772 26.1495 55.6278 26.3525C55.284 26.5529 54.9346 26.7315 54.5905 26.8646Z" fill="#FEFEFE"/>
<path d="M52.8986 27.944C52.9096 27.9428 53.8376 27.8243 54.6948 27.2452L54.7056 27.2948C53.8267 27.8872 52.8823 28.0078 52.8714 28.009L52.8986 27.944Z" fill="#FEFEFE"/>
<path d="M1.45195 90.7225C1.45195 90.7225 2.54376 93.7561 3.75014 93.4842C3.75014 93.4842 2.38547 92.856 1.67576 90.6024L1.45195 90.7225Z" fill="#3b6647"/>
<path d="M1.62648 90.753C1.67566 89.2601 4.11593 89.0946 5.75916 87.1996C7.36399 85.3015 6.46329 82.2947 6.73615 77.8221C7.18935 73.3665 9.777 70.9071 9.777 70.9071C9.777 70.9071 9.63506 71.1091 9.40035 71.3602C8.37951 72.4374 5.31141 76.0341 2.58194 83.9498C1.35908 87.7526 1.22259 89.6973 1.57745 90.7253C1.61572 90.7274 1.62648 90.753 1.62648 90.753Z" fill="#E5E4E2"/>
<path d="M1.62648 90.753C1.4246 89.2605 4.03391 88.9024 5.68259 87.0078C7.293 85.1107 6.20106 82.4088 6.48508 77.9363C6.9436 73.4816 9.71133 70.966 9.71133 70.966C9.59132 71.0878 9.4656 71.209 9.34559 71.3314C4.65073 75.8656 2.03037 80.5845 0.971381 85.6106C0.18525 89.9474 1.24424 90.7302 1.56628 90.7525C1.60455 90.7541 1.62648 90.753 1.62648 90.753Z" fill="#3b6647"/>
<path d="M1.67605 90.7124C1.47961 89.2198 4.08348 88.8627 5.73216 86.9674C7.33712 85.0693 6.25088 82.3681 6.52919 77.896C6.98771 73.4407 9.75558 70.9254 9.75558 70.9254C9.75558 70.9254 9.62441 71.0395 9.3897 71.2905C8.36886 72.3683 5.30089 75.9645 2.56585 83.8798C1.33767 87.6827 1.25566 89.6845 1.6161 90.7124C1.65424 90.7145 1.67605 90.7124 1.67605 90.7124Z" fill="#3b6647"/>
<path d="M1.56628 90.7525C1.42446 90.2017 1.40293 89.5382 1.45198 88.8335C1.5066 88.1293 1.63764 87.377 1.80696 86.6089C2.17258 85.0695 2.70208 83.4716 3.32992 81.8769C3.40634 81.6777 3.48821 81.4773 3.57008 81.2782L4.07233 80.0813L4.33973 79.4854C4.68926 78.6884 5.07682 77.9005 5.46995 77.1177L5.7755 76.5353C5.87372 76.3409 5.9831 76.1508 6.08676 75.9583C6.19056 75.7644 6.29968 75.5782 6.40892 75.3883C6.46342 75.2945 6.51804 75.1978 6.57266 75.106L6.73628 74.8281C7.18403 74.089 7.65357 73.3646 8.15024 72.7657C7.89931 73.0331 7.65358 73.3596 7.40797 73.697C7.16768 74.0383 6.92739 74.3925 6.69267 74.7612C6.22883 75.4975 5.78108 76.2698 5.36627 77.0594C4.94577 77.8476 4.55277 78.6495 4.18702 79.4553L3.90846 80.06L3.65195 80.6667L3.38999 81.2733C3.30812 81.4751 3.22625 81.6777 3.14438 81.8807C2.82768 82.6914 2.53277 83.502 2.27626 84.3063C2.15079 84.708 2.03065 85.1087 1.9214 85.505C1.81228 85.9036 1.71951 86.2961 1.63764 86.6848C1.4739 87.4617 1.36466 88.2199 1.33741 88.917C1.33183 89.2647 1.34285 89.5966 1.37568 89.9074C1.41382 90.2178 1.46806 90.51 1.56628 90.7525Z" fill="#FEFEFE"/>
<path d="M6.50148 78.7746C6.38704 79.2289 6.17413 79.711 5.93384 80.1493C5.69355 80.5889 5.41525 80.9905 5.12579 81.3464C4.83658 81.7061 4.54179 82.0077 4.24143 82.2979C3.93043 82.5912 3.61917 82.9765 3.35164 83.4112C3.07865 83.8456 2.83849 84.3136 2.6366 84.7831C2.42901 85.2525 2.24893 85.7263 2.09609 86.1937C1.79041 87.1291 1.56647 88.0497 1.4192 88.9286C1.50652 88.482 1.61031 88.0278 1.73033 87.5698C1.85048 87.1125 1.98697 86.6506 2.14526 86.1854C2.30355 85.7221 2.48364 85.2546 2.68565 84.7933C2.88779 84.3331 3.12238 83.8778 3.38992 83.4592C3.64643 83.0377 3.9412 82.6671 4.24143 82.3814C4.54179 82.084 4.84748 81.7782 5.14226 81.4033C5.43159 81.0331 5.71003 80.6183 5.95577 80.1658C6.07021 79.9381 6.18491 79.7056 6.2778 79.4697C6.37057 79.2349 6.45244 78.9962 6.50148 78.7746Z" fill="#FEFEFE"/>
<path d="M1.43034 89.413C1.49598 89.2148 1.5615 89.0166 1.63793 88.8191C1.7089 88.6208 1.79077 88.4233 1.87809 88.2284C2.05273 87.8375 2.24384 87.4515 2.4622 87.0921C2.68057 86.732 2.92073 86.4022 3.17191 86.1231C3.29738 85.9842 3.42843 85.857 3.55402 85.7488C3.68506 85.633 3.81053 85.5447 3.94157 85.4534C3.69051 85.5829 3.4231 85.7832 3.16647 86.0593C2.89893 86.3317 2.64775 86.6751 2.41861 87.047C2.19467 87.4197 1.99811 87.819 1.8345 88.219C1.66518 88.6186 1.52868 89.0238 1.43034 89.413Z" fill="#FEFEFE"/>
<path d="M1.63788 86.5128C1.6214 86.2671 1.61608 86.0137 1.6214 85.75C1.6214 85.6211 1.63243 85.4864 1.63243 85.3548C1.64333 85.2211 1.65423 85.084 1.66513 84.9492C1.70885 84.4027 1.79072 83.8344 1.91086 83.2455C1.94343 83.0971 1.97081 82.9522 2.00364 82.8022L2.1182 82.3514C2.15648 82.2011 2.20565 82.0462 2.24925 81.8936L2.31477 81.664C2.33656 81.5871 2.36394 81.5094 2.39119 81.4314L2.54403 80.9662L2.72411 80.4956C2.75162 80.4177 2.77874 80.339 2.81157 80.2609L2.90991 80.0245L3.11179 79.5513L2.89888 80.0239L2.78977 80.2609C2.75695 80.3395 2.72412 80.4192 2.69155 80.4978L2.50588 80.9733L2.33656 81.4456C2.12377 82.0735 1.95992 82.6924 1.83445 83.2857C1.71976 83.878 1.63788 84.4524 1.60506 84.9944C1.57236 85.5343 1.57236 86.0513 1.63788 86.5128Z" fill="#FEFEFE"/>
<path d="M1.3377 89.254C1.33212 89.2447 0.830004 88.2708 1.02657 86.8438L0.944687 86.891C0.748122 88.3512 1.26127 89.343 1.26672 89.3528L1.3377 89.254Z" fill="#FEFEFE"/>
<path d="M82.0989 54.9311C82.0989 54.9311 79.0419 55.958 79.2929 57.1731C79.2929 57.1731 79.9481 55.8193 82.2136 55.156L82.0989 54.9311Z" fill="#3b6647"/>
<path d="M82.0662 55.1029C83.5565 55.1841 83.6712 57.6265 85.5327 59.3091C87.3998 60.9533 90.4241 60.1087 94.8896 60.4767C99.3333 61.0188 101.741 63.6555 101.741 63.6555C101.741 63.6555 101.544 63.5121 101.299 63.2723C100.239 62.229 96.7074 59.0886 88.8463 56.1979C85.0686 54.8975 83.1308 54.7207 82.0936 55.0559C82.0936 55.0947 82.0662 55.1029 82.0662 55.1029Z" fill="#E5E4E2"/>
<path d="M82.0662 55.1029C83.562 54.9336 83.8677 57.5487 85.7293 59.2349C87.5909 60.882 90.3148 59.848 94.7804 60.221C99.2241 60.7691 101.681 63.5908 101.681 63.5908C101.566 63.4647 101.446 63.3408 101.326 63.2179C96.8877 58.4315 92.2254 55.7171 87.2196 54.5517C82.9015 53.6814 82.0936 54.7203 82.0662 55.0409C82.0662 55.0801 82.0662 55.1029 82.0662 55.1029Z" fill="#3b6647"/>
<path d="M82.1042 55.1535C83.6 54.9848 83.9057 57.5987 85.7673 59.2833C87.6288 60.9298 90.3529 59.8947 94.8184 60.2676C99.2676 60.8157 101.724 63.6358 101.724 63.6358C101.724 63.6358 101.61 63.5031 101.364 63.263C100.31 62.2192 96.7783 59.0769 88.9172 56.1809C85.1396 54.8784 83.1415 54.7556 82.1042 55.0913C82.1042 55.1307 82.1042 55.1535 82.1042 55.1535Z" fill="#3b6647"/>
<path d="M82.0662 55.0409C82.6231 54.9148 83.2835 54.9052 83.9877 54.9685C84.692 55.0339 85.4399 55.1798 86.2042 55.3703C87.7382 55.7661 89.3268 56.3289 90.9045 56.9851C91.1009 57.067 91.3029 57.1532 91.4994 57.2368L92.0945 57.4998L92.6842 57.7653L93.2738 58.0441C94.0652 58.411 94.8459 58.8123 95.6211 59.2227L96.1942 59.5383C96.3908 59.6448 96.5765 59.7555 96.7675 59.8643C96.9586 59.9711 97.1442 60.0853 97.3298 60.1972C97.4227 60.2533 97.5154 60.308 97.6082 60.3659L97.8812 60.5389C98.6126 60.9987 99.3279 61.4844 99.9174 61.9931C99.6553 61.7378 99.3333 61.4818 99.0003 61.2324C98.6619 60.9822 98.3125 60.7339 97.9522 60.4941C97.2261 60.0122 96.4618 59.5509 95.6811 59.1181C94.9004 58.6856 94.109 58.2734 93.3064 57.8903L92.7115 57.6036L92.111 57.3312L91.5104 57.061C91.3085 56.9746 91.1064 56.8863 90.9045 56.8022C90.1019 56.4687 89.294 56.1586 88.4971 55.8841C88.0985 55.7497 87.7 55.6225 87.3069 55.5074C86.9084 55.3894 86.5208 55.2891 86.1332 55.1973C85.358 55.0176 84.6048 54.8921 83.9059 54.8533C83.562 54.837 83.2291 54.8418 82.9178 54.8697C82.6067 54.8986 82.3119 54.9485 82.0662 55.0409Z" fill="#FEFEFE"/>
<path d="M93.9402 60.2198C93.4926 60.0952 93.012 59.8747 92.5807 59.6264C92.1441 59.3747 91.751 59.0892 91.3961 58.7949C91.0467 58.499 90.7519 58.1933 90.4682 57.8876C90.1787 57.5725 89.8022 57.2555 89.3709 56.976C88.9396 56.6953 88.4811 56.4475 88.0116 56.2325C87.5475 56.0163 87.078 55.8273 86.6141 55.6652C85.686 55.342 84.7688 55.0969 83.8954 54.9337C84.3376 55.0287 84.7907 55.1428 85.2438 55.2732C85.7023 55.4043 86.161 55.549 86.6195 55.717C87.0835 55.8847 87.5475 56.0692 88.0005 56.2843C88.4592 56.4966 88.9068 56.7402 89.3217 57.0119C89.7367 57.2812 90.1023 57.5846 90.3807 57.887C90.6755 58.1961 90.9703 58.5072 91.3415 58.8069C91.7074 59.105 92.1169 59.3943 92.5645 59.6464C92.7883 59.7688 93.0175 59.8868 93.2524 59.9834C93.4871 60.0811 93.7217 60.1678 93.9402 60.2198Z" fill="#FEFEFE"/>
<path d="M83.4094 54.935C83.606 55.0005 83.8024 55.0731 83.999 55.1527C84.1956 55.2309 84.392 55.3144 84.583 55.4057C84.9707 55.5858 85.3529 55.7867 85.7077 56.0127C86.0625 56.2364 86.39 56.4855 86.6629 56.7436C86.7994 56.8719 86.925 57.0029 87.0287 57.134C87.1434 57.2649 87.2307 57.3938 87.3182 57.5237C87.1924 57.2726 86.996 57.0023 86.7286 56.7349C86.461 56.4662 86.1226 56.2042 85.7568 55.9722C85.3855 55.7386 84.9925 55.5328 84.594 55.3597C84.2009 55.1867 83.7969 55.0387 83.4094 54.935Z" fill="#FEFEFE"/>
<path d="M86.3028 55.1981C86.554 55.1877 86.8052 55.1873 87.0672 55.1999C87.1982 55.2024 87.3291 55.2139 87.4656 55.221C87.5967 55.2309 87.7332 55.245 87.8697 55.257C88.4155 55.3156 88.9778 55.4067 89.5674 55.5404C89.7149 55.5747 89.8569 55.6032 90.0097 55.6435L90.4572 55.7642C90.6047 55.8045 90.7575 55.8576 90.9103 55.904L91.1396 55.975C91.2161 55.9995 91.2925 56.0289 91.3689 56.0557L91.8329 56.2201L92.297 56.4072C92.3789 56.4391 92.4553 56.4695 92.5317 56.5012L92.7665 56.6066L93.236 56.8157L92.7665 56.5906L92.5317 56.4787C92.4553 56.4437 92.3734 56.4112 92.297 56.3778L91.8274 56.1791L91.358 56.0033C90.7357 55.779 90.1188 55.5972 89.5292 55.4646C88.9397 55.3367 88.3665 55.2435 87.8259 55.1971C87.2855 55.1549 86.7669 55.1462 86.3028 55.1981Z" fill="#FEFEFE"/>
<path d="M83.5678 54.8465C83.5786 54.8416 84.5613 54.3568 85.9861 54.5801L85.9426 54.5021C84.4849 54.2734 83.4804 54.7691 83.4749 54.774L83.5678 54.8465Z" fill="#FEFEFE"/>
<path d="M83.6659 99.9663C83.6659 99.9663 83.5894 96.7443 82.3557 96.6197C82.3557 96.6197 83.4529 97.6479 83.4148 100.011L83.6659 99.9663Z" fill="#EDECE9"/>
<path d="M83.5075 99.8838C82.9888 101.284 80.625 100.67 78.4632 101.948C76.3397 103.242 76.2525 106.381 74.5764 110.538C72.7368 114.622 69.5049 116.138 69.5049 116.138C69.5049 116.138 69.7015 115.991 70.0072 115.826C71.3172 115.128 75.3624 112.684 80.4504 106.036C82.8141 102.814 83.5621 101.013 83.5458 99.9252C83.5075 99.9111 83.5075 99.8838 83.5075 99.8838Z" fill="#DBDAD7"/>
<path d="M83.5075 99.8838C83.2292 101.363 80.6415 100.878 78.4797 102.155C76.3507 103.447 76.5308 106.354 74.8493 110.509C73.0097 114.591 69.5868 116.102 69.5868 116.102C69.7396 116.025 69.8979 115.949 70.0509 115.871C75.9356 113.052 79.91 109.403 82.5084 104.97C84.6211 101.102 83.8678 100.026 83.5676 99.9034C83.5293 99.889 83.5075 99.8838 83.5075 99.8838Z" fill="#3b6647"/>
<path d="M83.4475 99.9061C83.1692 101.385 80.5816 100.9 78.4198 102.178C76.2962 103.471 76.4763 106.378 74.7948 110.533C72.9552 114.615 69.5324 116.127 69.5324 116.127C69.5324 116.127 69.6907 116.059 69.9964 115.895C71.3011 115.196 75.3518 112.754 80.4505 106.108C82.8143 102.887 83.5241 101.013 83.5076 99.9257C83.4748 99.9114 83.4475 99.9061 83.4475 99.9061Z" fill="#3b6647"/>
<path d="M83.5676 99.9034C83.524 100.469 83.3382 101.106 83.0708 101.76C82.7979 102.412 82.4375 103.084 82.028 103.758C81.1928 105.103 80.1883 106.452 79.0911 107.768C78.9546 107.932 78.8126 108.095 78.6761 108.26L78.2449 108.748L77.819 109.236L77.377 109.718C76.7927 110.362 76.1759 110.989 75.5535 111.607L75.0841 112.064C74.9258 112.215 74.7621 112.362 74.6038 112.511C74.4455 112.662 74.2816 112.805 74.1179 112.951C74.036 113.022 73.9542 113.097 73.8722 113.167L73.6265 113.378C72.9715 113.938 72.2945 114.477 71.634 114.888C71.9561 114.713 72.2944 114.482 72.6329 114.238C72.9715 113.992 73.3153 113.732 73.6483 113.456C74.3254 112.905 74.9912 112.313 75.6354 111.696C76.2796 111.079 76.9129 110.443 77.5135 109.794L77.9666 109.307L78.8399 108.32C78.9818 108.155 79.1239 107.988 79.2658 107.821C79.8226 107.153 80.3575 106.476 80.8544 105.794C81.1055 105.453 81.3457 105.111 81.5695 104.768C81.7989 104.425 82.0118 104.083 82.2137 103.74C82.6121 103.054 82.9562 102.37 83.2017 101.716C83.3218 101.389 83.4147 101.071 83.4801 100.765C83.5458 100.46 83.5839 100.164 83.5676 99.9034Z" fill="#FEFEFE"/>
<path d="M75.1005 109.708C75.3572 109.315 75.7066 108.923 76.0722 108.584C76.4434 108.242 76.8311 107.949 77.2188 107.702C77.6062 107.452 77.983 107.261 78.3596 107.08C78.7473 106.899 79.1622 106.631 79.5552 106.305C79.9482 105.978 80.3249 105.61 80.6687 105.23C81.0128 104.849 81.3294 104.457 81.6241 104.061C82.2083 103.269 82.7158 102.468 83.1309 101.68C82.907 102.076 82.6615 102.473 82.4048 102.87C82.1428 103.265 81.8698 103.661 81.575 104.052C81.2747 104.443 80.9635 104.831 80.6197 105.202C80.2813 105.576 79.9154 105.933 79.5334 106.247C79.1566 106.565 78.7581 106.823 78.3869 107C78.0048 107.187 77.6172 107.381 77.2241 107.645C76.8311 107.904 76.4326 108.209 76.056 108.561C75.8756 108.74 75.6955 108.924 75.5318 109.119C75.3681 109.313 75.2152 109.514 75.1005 109.708Z" fill="#FEFEFE"/>
<path d="M83.2726 101.217C83.1525 101.385 83.0215 101.551 82.8904 101.716C82.7539 101.879 82.6174 102.041 82.4755 102.2C82.1863 102.516 81.8806 102.821 81.5586 103.092C81.2417 103.366 80.9089 103.603 80.5813 103.787C80.4176 103.879 80.2537 103.96 80.1008 104.021C79.9371 104.091 79.7897 104.135 79.6424 104.18C79.9152 104.136 80.2319 104.03 80.5703 103.852C80.9034 103.676 81.2528 103.43 81.5857 103.149C81.9188 102.866 82.23 102.551 82.5138 102.223C82.7978 101.896 83.0597 101.556 83.2726 101.217Z" fill="#FEFEFE"/>
<path d="M82.1647 103.904C82.0991 104.142 82.0227 104.384 81.9355 104.632C81.8918 104.753 81.8426 104.879 81.799 105.003C81.7497 105.128 81.6954 105.253 81.6406 105.379C81.4224 105.882 81.1712 106.396 80.8654 106.917C80.789 107.047 80.7234 107.176 80.6362 107.308L80.3905 107.7C80.3086 107.831 80.2104 107.962 80.1231 108.093L79.9866 108.29C79.9374 108.355 79.8884 108.421 79.8391 108.486L79.5498 108.879L79.2277 109.269C79.1786 109.334 79.1241 109.399 79.0694 109.464L78.9001 109.656L78.5617 110.042L78.9166 109.661L79.0912 109.471C79.1513 109.406 79.2059 109.341 79.2606 109.276L79.588 108.885L79.8937 108.49C80.2922 107.961 80.6525 107.427 80.9528 106.902C81.2476 106.377 81.5096 105.857 81.7116 105.355C81.9136 104.852 82.0719 104.36 82.1647 103.904Z" fill="#FEFEFE"/>
<path d="M83.3108 101.396C83.3108 101.407 83.48 102.49 82.8469 103.782L82.9343 103.762C83.5838 102.44 83.4092 101.335 83.4092 101.325L83.3108 101.396Z" fill="#FEFEFE"/>
<path d="M12.2993 108.493C12.2993 108.493 12.3594 108.499 12.4741 108.516C13.5278 108.667 18.9104 109.687 20.4389 114.743C20.4389 114.743 20.417 114.723 20.3733 114.683C20.0567 114.376 18.4846 112.946 16.0934 112.175C13.3966 111.307 12.2993 108.493 12.2993 108.493Z" fill="#3b6647"/>
<path d="M12.5069 108.596C12.7307 108.913 12.9819 109.223 13.2658 109.519C13.5497 109.816 13.8608 110.101 14.2102 110.357C14.8926 110.889 15.7497 111.175 16.5522 111.564C17.3601 111.949 18.1627 112.378 18.8612 112.917C19.2108 113.183 19.5219 113.481 19.7949 113.787L19.986 114.021C20.0405 114.1 20.0951 114.181 20.1498 114.26L20.2316 114.38L20.3026 114.501L20.4389 114.743C20.0567 114.099 19.4947 113.482 18.7959 112.97C18.4464 112.717 18.0808 112.476 17.6931 112.261C17.3109 112.045 16.9124 111.847 16.514 111.659C16.11 111.468 15.7061 111.289 15.2966 111.102C14.8871 110.916 14.4887 110.681 14.1447 110.41C13.4514 109.868 12.9001 109.237 12.5069 108.596Z" fill="#FEFEFE"/>
<path d="M12.4741 108.516C13.5278 108.667 18.9104 109.687 20.4389 114.743C20.4389 114.743 20.417 114.723 20.3733 114.683C19.0632 112.312 15.9025 111.301 14.7342 110.774C13.7352 110.323 12.7852 108.987 12.4741 108.516Z" fill="#3b6647"/>
<path d="M12.4082 108.648C12.4082 108.648 11.4802 107.462 12.0315 106.937C12.0315 106.937 11.6821 107.351 12.4082 108.648Z" fill="#3b6647"/>
</svg>
